<svg fill="none" xmlns="http://www.w3.org/2000/svg" viewBox="0 0 112 113">
  <rect y=".5" width="112" height="112" rx="56" fill="url(#a)"/>
  <path d="M56 13.17A43.35 43.35 0 0 0 12.67 56.5 43.35 43.35 0 0 0 56 99.83 43.35 43.35 0 0 0 99.33 56.5 43.35 43.35 0 0 0 56 13.17Zm-20.15 71.5A34.41 34.41 0 0 1 56 78.17c7.54 0 14.47 2.42 20.15 6.5A34.41 34.41 0 0 1 56 91.17a34.41 34.41 0 0 1-20.15-6.5Zm46.76-5.98a43.1 43.1 0 0 0-53.22 0A34.66 34.66 0 0 1 56 21.84a34.66 34.66 0 0 1 26.62 56.85Z" fill="#000"/>
  <path d="M56 30.5c-8.36 0-15.17 6.8-15.17 15.17 0 8.36 6.8 15.16 15.17 15.16 8.36 0 15.17-6.8 15.17-15.16 0-8.37-6.8-15.17-15.17-15.17Zm0 21.67a6.5 6.5 0 1 1-.02-12.99A6.5 6.5 0 0 1 56 52.17Z" fill="#000"/>
  <defs>
    <linearGradient id="a" x1="112" y1=".5" x2="0" y2="112.5" gradientUnits="userSpaceOnUse">
      <stop offset="0" stop-color="#AE7AFF"/>
      <stop offset="1" stop-color="#6686FF"/>
    </linearGradient>
  </defs>
</svg>
