<?xml version="1.0" encoding="utf-8"?>
<svg viewBox="0 0 20 20" width="20" height="20" xmlns="http://www.w3.org/2000/svg">
  <style>g {display: none;} g:target {display: block;}</style>

  <g id="eye">
    <path d="M9.88 7H10c.68 0 1.26.25 1.76.74.5.5.74 1.08.74 1.76v.16L9.88 7Zm-3.6.66a4.09 4.09 0 0 0 .75 4.8 4.12 4.12 0 0 0 4.8.75l-1.28-1.29a2.4 2.4 0 0 1-2.3-.66 2.4 2.4 0 0 1-.67-2.3l-1.3-1.3Zm-4.6-4.6L2.73 2 17.5 16.77l-1.05 1.05-1.25-1.21-1.57-1.56c-1.12.47-2.33.7-3.63.7a9.64 9.64 0 0 1-5.59-1.72A9.61 9.61 0 0 1 .82 9.5c.29-.68.73-1.42 1.33-2.23a9.98 9.98 0 0 1 1.8-1.91L2.62 4.03l-.94-.98ZM10 5.31c-.52 0-1.03.1-1.52.31l-1.8-1.8A9.17 9.17 0 0 1 10 3.26c2.06 0 3.9.57 5.55 1.72a9.61 9.61 0 0 1 3.6 4.53 10.18 10.18 0 0 1-2.86 3.95l-2.42-2.43a3.93 3.93 0 0 0-.94-4.45A3.93 3.93 0 0 0 10 5.32Z"/>
  </g>

  <g id="telegram">
    <path d="M10.5 1.68c1.15 0 2.21.22 3.2.66a7.74 7.74 0 0 1 2.66 1.8 7.74 7.74 0 0 1 1.8 2.66 8.02 8.02 0 0 1 0 6.45 8.54 8.54 0 0 1-4.45 4.45c-1 .41-2.06.62-3.21.62s-2.23-.2-3.24-.62a9.2 9.2 0 0 1-2.66-1.8 9.2 9.2 0 0 1-1.8-2.66 8.46 8.46 0 0 1 1.8-9.1 8.27 8.27 0 0 1 5.9-2.46Zm3.87 5.66V7.04c0-.11-.04-.2-.12-.24a.27.27 0 0 0-.2-.08.3.3 0 0 0-.11-.04 13.53 13.53 0 0 0-1.37.43l-1.76.7c-.39.18-1 .46-1.83.82-.81.34-1.81.77-3.01 1.3-.4.15-.6.3-.63.46-.02.13.06.23.24.31.18.06.4.13.66.24.21.05.43.11.67.2l.62.11c.26 0 .56-.12.9-.35a79 79 0 0 1 3.52-2.3c.1-.03.16-.03.2 0l.03.15-.27.27a15.54 15.54 0 0 1-1.21 1.17 172756006510843.12 172756006510843.12 0 0 1-1.25 1.26c-.13.13-.2.26-.2.39.03.13.17.28.43.46l.94.63.93.62c.24.16.45.32.63.47.2.13.43.19.66.16.13 0 .25-.07.36-.2.1-.13.18-.35.23-.66.08-.36.16-.82.23-1.37.1-.54.2-1.1.28-1.68a72.96 72.96 0 0 0 .43-2.93Z" />
  </g>
</svg>
