<svg fill="none" xmlns="http://www.w3.org/2000/svg" viewBox="0 0 61 74">
  <path d="M50.12 0 0 24.76l.01 4.62-.01.01.02 5.14-.02.01.01 4.63H0l.07 21.68 10.5 8.52 3.76-2L23.3 74l10.17-15.43L61 44.34V7.87L50.12 0Zm-35 63.32-1.02 1.52h-.14l-.1-1.86-.3-5-.23-3.97-.04.01-5.94 2.95-3.94 1.96-1.63.8v-33.7L49.33 2.42v33.7L25.45 47.98l-8.01 11.9-2.32 3.44Z" fill="#AE7AFF"/>
  <path d="M7.4 38.22v-7.18l-2.65 1.31v-3.33l9.13-4.52v3.34l-2.65 1.31v7.18l-3.83 1.9Z" fill="#AE7AFF"/>
  <path d="M7.4 38.22v-7.18l-2.65 1.31v-3.33l9.13-4.52v3.34l-2.65 1.31v7.18l-3.83 1.9Z" fill="#fff" fill-opacity=".8"/>
  <path d="M15.25 34.34V23.82l3.83-1.9v10.52l-3.83 1.9Z" fill="#AE7AFF"/>
  <path d="M15.25 34.34V23.82l3.83-1.9v10.52l-3.83 1.9Z" fill="#fff" fill-opacity=".8"/>
  <path d="M27.64 28.2c-.46-.78-.85-1.35-1.15-1.69a1.8 1.8 0 0 0-.87-.62 1.68 1.68 0 0 0-1.04.16v3.67l-3.82 1.9V21.1l3.82-1.9v3.5c.37-.22.68-.5.94-.83.25-.33.51-.8.77-1.39.26-.59.59-1.46.99-2.61l4.2-2.08c-.3.83-.57 1.54-.8 2.11-.23.58-.46 1.1-.7 1.6-.24.47-.46.87-.66 1.18a5.8 5.8 0 0 1-2.43 2.12v.86c.42-.18.78-.32 1.1-.41a3 3 0 0 1 .9-.13c.3 0 .56.06.79.17.23.1.47.28.72.54.26.25.5.55.75.9.24.35.52.8.83 1.33l-4.34 2.14Z" fill="#AE7AFF"/>
  <path d="M27.64 28.2c-.46-.78-.85-1.35-1.15-1.69a1.8 1.8 0 0 0-.87-.62 1.68 1.68 0 0 0-1.04.16v3.67l-3.82 1.9V21.1l3.82-1.9v3.5c.37-.22.68-.5.94-.83.25-.33.51-.8.77-1.39.26-.59.59-1.46.99-2.61l4.2-2.08c-.3.83-.57 1.54-.8 2.11-.23.58-.46 1.1-.7 1.6-.24.47-.46.87-.66 1.18a5.8 5.8 0 0 1-2.43 2.12v.86c.42-.18.78-.32 1.1-.41a3 3 0 0 1 .9-.13c.3 0 .56.06.79.17.23.1.47.28.72.54.26.25.5.55.75.9.24.35.52.8.83 1.33l-4.34 2.14Z" fill="#fff" fill-opacity=".8"/>
  <path d="M32.1 22.49v-2.32l5.25-2.6v2.32l-5.25 2.6Z" fill="#AE7AFF"/>
  <path d="M32.1 22.49v-2.32l5.25-2.6v2.32l-5.25 2.6Z" fill="#fff" fill-opacity=".8"/>
  <path d="M7.4 52.6V45.4l-2.65 1.32v-3.34l9.13-4.52v3.34l-2.65 1.31v7.18L7.4 52.6Z" fill="#AE7AFF"/>
  <path d="M7.4 52.6V45.4l-2.65 1.32v-3.34l9.13-4.52v3.34l-2.65 1.31v7.18L7.4 52.6Z" fill="#fff" fill-opacity=".8"/>
  <path d="m17.54 47.58-3.96 1.95 3.64-12.31 4.55-2.26 3.65 8.72-3.96 1.96-.36-1.01-3.2 1.58-.36 1.37Zm1-4.27 1.93-.95c-.19-.6-.31-1.11-.38-1.56-.07-.45-.12-1.04-.14-1.78l-.9.45c-.03.76-.07 1.4-.14 1.92s-.2 1.16-.37 1.92Z" fill="#AE7AFF"/>
  <path d="m17.54 47.58-3.96 1.95 3.64-12.31 4.55-2.26 3.65 8.72-3.96 1.96-.36-1.01-3.2 1.58-.36 1.37Zm1-4.27 1.93-.95c-.19-.6-.31-1.11-.38-1.56-.07-.45-.12-1.04-.14-1.78l-.9.45c-.03.76-.07 1.4-.14 1.92s-.2 1.16-.37 1.92Z" fill="#fff" fill-opacity=".8"/>
  <path d="M26.49 43.15V32.63l3.83-1.9v7.19l3.62-1.8v3.34l-7.45 3.68Z" fill="#AE7AFF"/>
  <path d="M26.49 43.15V32.63l3.83-1.9v7.19l3.62-1.8v3.34l-7.45 3.68Z" fill="#fff" fill-opacity=".8"/>
  <path d="M42.17 35.38c-.46-.78-.85-1.35-1.15-1.69a1.8 1.8 0 0 0-.87-.61 1.68 1.68 0 0 0-1.03.15v3.67l-3.83 1.9V28.27l3.83-1.9v3.5c.36-.22.67-.5.93-.83.26-.33.51-.8.77-1.38.26-.6.6-1.47.99-2.62l4.2-2.08c-.3.83-.57 1.54-.8 2.12-.23.57-.46 1.1-.7 1.58-.24.48-.46.88-.66 1.2a5.81 5.81 0 0 1-2.43 2.11v.87c.42-.2.79-.33 1.1-.42a3 3 0 0 1 .9-.13c.3.01.56.07.79.17.23.1.47.29.73.54.25.25.5.55.74.9s.52.8.83 1.33l-4.33 2.15Z" fill="#AE7AFF"/>
  <path d="M42.17 35.38c-.46-.78-.85-1.35-1.15-1.69a1.8 1.8 0 0 0-.87-.61 1.68 1.68 0 0 0-1.03.15v3.67l-3.83 1.9V28.27l3.83-1.9v3.5c.36-.22.67-.5.93-.83.26-.33.51-.8.77-1.38.26-.6.6-1.47.99-2.62l4.2-2.08c-.3.83-.57 1.54-.8 2.12-.23.57-.46 1.1-.7 1.58-.24.48-.46.88-.66 1.2a5.81 5.81 0 0 1-2.43 2.11v.87c.42-.2.79-.33 1.1-.42a3 3 0 0 1 .9-.13c.3.01.56.07.79.17.23.1.47.29.73.54.25.25.5.55.74.9s.52.8.83 1.33l-4.33 2.15Z" fill="#fff" fill-opacity=".8"/>
</svg>
