<svg width="441" height="432" fill="none" xmlns="http://www.w3.org/2000/svg"><g clip-path="url(#a)"><path d="M335.16 1.5 43.5 145.35l.08 26.88-.08.05.1 29.88-.1.05.08 26.88-.08.05.39 125.93 61.09 49.5 21.89-11.62 52.2 38.55 59.24-89.65 160.19-82.72V47.25L335.16 1.5ZM131.52 369.45l-5.94 8.82h-.83l-.63-10.8-1.68-29.03-1.34-23.1c-.1.02-.19.02-.28.06l-34.56 17.15-22.9 11.36-9.47 4.7V152.79L330.6 15.51v195.82l-138.98 68.94-46.63 69.2-13.47 19.98Z" fill="#AE7AFF"/><path d="M86.57 223.6v-41.71l-15.42 7.62v-19.39l53.13-26.25v19.38l-15.45 7.63v41.72l-22.27 11Z" fill="#AE7AFF"/><path d="M86.57 223.6v-41.71l-15.42 7.62v-19.39l53.13-26.25v19.38l-15.45 7.63v41.72l-22.27 11Z" fill="#fff" fill-opacity=".8"/><path d="M132.25 201.02v-61.1l22.26-11v61.1l-22.26 11Z" fill="#AE7AFF"/><path d="M132.25 201.02v-61.1l22.26-11v61.1l-22.26 11Z" fill="#fff" fill-opacity=".8"/><path d="M204.38 165.38c-2.7-4.57-4.94-7.85-6.7-9.83-1.75-1.99-3.45-3.18-5.09-3.58-1.64-.4-3.64-.1-6.01.9v21.31l-22.27 11v-61.1l22.27-11v20.28a18.77 18.77 0 0 0 5.44-4.77 39.47 39.47 0 0 0 4.5-8.06c1.5-3.44 3.42-8.51 5.73-15.2l24.49-12.1a451.05 451.05 0 0 1-4.67 12.3c-1.34 3.35-2.7 6.43-4.08 9.23a66.42 66.42 0 0 1-3.86 6.9 33.72 33.72 0 0 1-8.63 9 54.08 54.08 0 0 1-5.52 3.33V139c2.45-1.1 4.58-1.9 6.38-2.42 1.8-.52 3.56-.76 5.27-.73 1.71.04 3.24.36 4.58.98 1.33.61 2.75 1.65 4.23 3.1a35.95 35.95 0 0 1 4.35 5.25c1.41 2.04 3.02 4.62 4.81 7.73l-25.22 12.46Z" fill="#AE7AFF"/><path d="M204.38 165.38c-2.7-4.57-4.94-7.85-6.7-9.83-1.75-1.99-3.45-3.18-5.09-3.58-1.64-.4-3.64-.1-6.01.9v21.31l-22.27 11v-61.1l22.27-11v20.28a18.77 18.77 0 0 0 5.44-4.77 39.47 39.47 0 0 0 4.5-8.06c1.5-3.44 3.42-8.51 5.73-15.2l24.49-12.1a451.05 451.05 0 0 1-4.67 12.3c-1.34 3.35-2.7 6.43-4.08 9.23a66.42 66.42 0 0 1-3.86 6.9 33.72 33.72 0 0 1-8.63 9 54.08 54.08 0 0 1-5.52 3.33V139c2.45-1.1 4.58-1.9 6.38-2.42 1.8-.52 3.56-.76 5.27-.73 1.71.04 3.24.36 4.58.98 1.33.61 2.75 1.65 4.23 3.1a35.95 35.95 0 0 1 4.35 5.25c1.41 2.04 3.02 4.62 4.81 7.73l-25.22 12.46Z" fill="#fff" fill-opacity=".8"/><path d="M230.28 132.17v-13.46l30.57-15.1v13.45l-30.57 15.11Z" fill="#AE7AFF"/><path d="M230.28 132.17v-13.46l30.57-15.1v13.45l-30.57 15.11Z" fill="#fff" fill-opacity=".8"/><path d="M86.57 307.1v-41.7l-15.42 7.62v-19.39l53.13-26.25v19.38l-15.45 7.63v41.72l-22.27 11Z" fill="#AE7AFF"/><path d="M86.57 307.1v-41.7l-15.42 7.62v-19.39l53.13-26.25v19.38l-15.45 7.63v41.72l-22.27 11Z" fill="#fff" fill-opacity=".8"/><path d="m145.56 277.95-23.03 11.39 21.2-71.57 26.5-13.1 21.18 50.63-23.03 11.38-2.1-5.87-18.62 9.2-2.1 7.94Zm5.83-24.77 11.21-5.55a67.18 67.18 0 0 1-2.2-9.04c-.42-2.61-.68-6.06-.8-10.35l-5.26 2.6c-.15 4.45-.4 8.17-.8 11.17-.39 3-1.1 6.73-2.16 11.17Z" fill="#AE7AFF"/><path d="m145.56 277.95-23.03 11.39 21.2-71.57 26.5-13.1 21.18 50.63-23.03 11.38-2.1-5.87-18.62 9.2-2.1 7.94Zm5.83-24.77 11.21-5.55a67.18 67.18 0 0 1-2.2-9.04c-.42-2.61-.68-6.06-.8-10.35l-5.26 2.6c-.15 4.45-.4 8.17-.8 11.17-.39 3-1.1 6.73-2.16 11.17Z" fill="#fff" fill-opacity=".8"/><path d="M197.66 252.21v-61.1l22.27-11v41.7l21.1-10.42v19.38l-43.37 21.43v.01Z" fill="#AE7AFF"/><path d="M197.66 252.21v-61.1l22.27-11v41.7l21.1-10.42v19.38l-43.37 21.43v.01Z" fill="#fff" fill-opacity=".8"/><path d="M288.94 207.1c-2.7-4.56-4.94-7.84-6.7-9.82-1.75-1.99-3.45-3.18-5.09-3.58-1.64-.4-3.64-.1-6.01.91v21.3l-22.27 11v-61.1l22.27-11v20.29a18.8 18.8 0 0 0 5.44-4.78 39.45 39.45 0 0 0 4.5-8.06c1.5-3.44 3.42-8.5 5.73-15.19l24.49-12.1a455.24 455.24 0 0 1-4.67 12.3c-1.34 3.35-2.7 6.42-4.08 9.22a67.75 67.75 0 0 1-3.85 6.9 33.73 33.73 0 0 1-8.63 9 54.1 54.1 0 0 1-5.52 3.33v5.03c2.45-1.1 4.58-1.91 6.38-2.43 1.8-.52 3.56-.76 5.26-.72 1.72.03 3.24.35 4.58.97 1.34.62 2.75 1.65 4.24 3.1a35.9 35.9 0 0 1 4.34 5.25c1.42 2.04 3.02 4.62 4.82 7.74l-25.22 12.46v-.01Z" fill="#AE7AFF"/><path d="M288.94 207.1c-2.7-4.56-4.94-7.84-6.7-9.82-1.75-1.99-3.45-3.18-5.09-3.58-1.64-.4-3.64-.1-6.01.91v21.3l-22.27 11v-61.1l22.27-11v20.29a18.8 18.8 0 0 0 5.44-4.78 39.45 39.45 0 0 0 4.5-8.06c1.5-3.44 3.42-8.5 5.73-15.19l24.49-12.1a455.24 455.24 0 0 1-4.67 12.3c-1.34 3.35-2.7 6.42-4.08 9.22a67.75 67.75 0 0 1-3.85 6.9 33.73 33.73 0 0 1-8.63 9 54.1 54.1 0 0 1-5.52 3.33v5.03c2.45-1.1 4.58-1.91 6.38-2.43 1.8-.52 3.56-.76 5.26-.72 1.72.03 3.24.35 4.58.97 1.34.62 2.75 1.65 4.24 3.1a35.9 35.9 0 0 1 4.34 5.25c1.42 2.04 3.02 4.62 4.82 7.74l-25.22 12.46v-.01Z" fill="#fff" fill-opacity=".8"/><g clip-path="url(#b)"><mask id="c" style="mask-type:luminance" maskUnits="userSpaceOnUse" x="53" y="9" width="63" height="63"><path d="m115.5 9.5-62 .17.17 62 62-.17-.17-62Z" fill="#fff"/></mask><g mask="url(#c)"><path d="M84.67 71.59c-.98-29.37-1.71-30.1-31.08-30.92C82.95 39.7 83.68 38.96 84.5 9.6c.98 29.36 1.72 30.09 31.09 30.91-29.37.98-30.1 1.7-30.92 31.09Z" fill="#AE7AFF"/></g></g></g><g clip-path="url(#d)"><mask id="e" style="mask-type:luminance" maskUnits="userSpaceOnUse" x="299" y="343" width="79" height="79"><path d="m377.5 343.5-78 .22.22 78 78-.22-.22-78Z" fill="#fff"/></mask><g mask="url(#e)"><path d="M338.5 343.61a41.71 41.71 0 0 0 39.1 38.89 41.71 41.71 0 0 0-38.88 39.1 41.71 41.71 0 0 0-39.11-38.88 41.71 41.71 0 0 0 38.89-39.11Z" fill="#AE7AFF"/></g></g><defs><clipPath id="a"><path fill="#fff" transform="translate(43.5 1.5)" d="M0 0h355v430H0z"/></clipPath><clipPath id="b"><path fill="#fff" transform="rotate(-.16 3465.62 -19012.46)" d="M0 0h62v62H0z"/></clipPath><clipPath id="d"><path fill="#fff" transform="rotate(-.16 122329.31 -106289.46)" d="M0 0h78v78H0z"/></clipPath></defs></svg>
