<?xml version="1.0" encoding="utf-8"?>
<svg xmlns="http://www.w3.org/2000/svg" xmlns:xlink="http://www.w3.org/1999/xlink">
  <style>:root>svg{display:none}:root>svg:target{display:block}</style>

  <svg id="eye" xmlns="http://www.w3.org/2000/svg" viewBox="0 0 21 20">
    <path d="M10.38 7.5h.12c.68 0 1.26.25 1.76.74.5.5.74 1.08.74 1.76v.16L10.38 7.5Zm-3.6.66a4.09 4.09 0 0 0 .75 4.8 4.12 4.12 0 0 0 4.8.75l-1.28-1.29a2.4 2.4 0 0 1-2.3-.66 2.4 2.4 0 0 1-.67-2.3l-1.3-1.3Zm-4.6-4.6L3.23 2.5 18 17.27l-1.05 1.05-1.25-1.21-1.57-1.56c-1.12.47-2.33.7-3.63.7a9.64 9.64 0 0 1-5.59-1.72A9.61 9.61 0 0 1 1.32 10c.29-.68.73-1.42 1.33-2.23a9.98 9.98 0 0 1 1.8-1.91L3.12 4.53l-.94-.98Zm8.32 2.26c-.52 0-1.03.1-1.52.31l-1.8-1.8a9.17 9.17 0 0 1 3.32-.58c2.06 0 3.9.57 5.55 1.72a9.61 9.61 0 0 1 3.6 4.53 10.18 10.18 0 0 1-2.86 3.95l-2.42-2.43a3.93 3.93 0 0 0-.94-4.45 3.93 3.93 0 0 0-2.93-1.25Z" />
  </svg>

  <svg id="telegram" xmlns="http://www.w3.org/2000/svg" viewBox="0 0 240.1 240.1">
    <circle fill-rule="evenodd" clip-rule="evenodd" cx="120.1" cy="120.1" r="120.1"/>
    <path fill-rule="evenodd" clip-rule="evenodd" d="M54.3,118.8c35-15.2,58.3-25.3,70-30.2 c33.3-13.9,40.3-16.3,44.8-16.4c1,0,3.2,0.2,4.7,1.4c1.2,1,1.5,2.3,1.7,3.3s0.4,3.1,0.2,4.7c-1.8,19-9.6,65.1-13.6,86.3 c-1.7,9-5,12-8.2,12.3c-7,0.6-12.3-4.6-19-9c-10.6-6.9-16.5-11.2-26.8-18c-11.9-7.8-4.2-12.1,2.6-19.1c1.8-1.8,32.5-29.8,33.1-32.3 c0.1-0.3,0.1-1.5-0.6-2.1c-0.7-0.6-1.7-0.4-2.5-0.2c-1.1,0.2-17.9,11.4-50.6,33.5c-4.8,3.3-9.1,4.9-13,4.8 c-4.3-0.1-12.5-2.4-18.7-4.4c-7.5-2.4-13.5-3.7-13-7.9C45.7,123.3,48.7,121.1,54.3,118.8z"/>
  </svg>

  <svg id="home" xmlns="http://www.w3.org/2000/svg" viewBox="0 0 16 16">
    <path d="M6.66 13.34H3.34V8h-2L8 2l6.66 6h-2v5.34H9.34v-4H6.66v4Z" />
  </svg>

  <svg id="chats" xmlns="http://www.w3.org/2000/svg" viewBox="0 0 16 16">
    <path d="M12 5.34V4H4v1.34h8Zm-2.66 4V8H4v1.34h5.34ZM4 6v1.34h8V6H4Zm9.34-4.66c.36 0 .66.14.91.41.27.25.4.55.4.9v8c0 .36-.13.67-.4.94-.25.27-.55.41-.9.41H4l-2.66 2.66v-12c0-.36.13-.66.38-.91.27-.27.58-.4.94-.4h10.68Z" />
  </svg>

  <svg id="search" xmlns="http://www.w3.org/2000/svg" viewBox="0 0 16 16">
    <path d="M4.22 8.47c.58.58 1.29.87 2.12.87.84 0 1.55-.29 2.13-.87.58-.58.87-1.3.87-2.13 0-.83-.29-1.54-.87-2.12a2.9 2.9 0 0 0-2.13-.88c-.83 0-1.54.3-2.12.88a2.9 2.9 0 0 0-.88 2.12c0 .84.3 1.55.88 2.13Zm6.12.87 3.32 3.32-1 1-3.32-3.32v-.53l-.18-.19a4.15 4.15 0 0 1-2.82 1.04A4.27 4.27 0 0 1 2 6.34c0-1.2.42-2.23 1.25-3.06A4.22 4.22 0 0 1 6.35 2c1.2 0 2.22.43 3.06 1.28a4.16 4.16 0 0 1 .93 4.56c-.2.55-.44.98-.71 1.32l.18.18h.53Z" />
  </svg>

  <svg id="arrow" xmlns="http://www.w3.org/2000/svg" viewBox="0 0 16 16">
    <path d="M5.22 11.45 8.67 8 5.22 4.55 6.28 3.5l4.5 4.5-4.5 4.5-1.06-1.05Z" />
  </svg>

  <svg id="trash" xmlns="http://www.w3.org/2000/svg" viewBox="0 0 16 16">
    <path d="M10.34 2.66h2.32V4H3.34V2.66h2.32L6.34 2h3.32l.68.66ZM5.34 6v6.66h5.32V6H5.34ZM4 12.66v-8h8v8c0 .35-.14.66-.4.93-.28.27-.59.41-.94.41H5.34c-.35 0-.66-.14-.93-.4-.27-.28-.41-.59-.41-.94Z" />
  </svg>

  <svg id="logout" xmlns="http://www.w3.org/2000/svg" viewBox="0 0 16 16">
    <path d="M2.66 3.34v9.32H8V14H2.66c-.36 0-.67-.14-.94-.4a1.34 1.34 0 0 1-.38-.94V3.34A1.34 1.34 0 0 1 2.66 2H8v1.34H2.66Zm8.68 1.32L14.66 8l-3.32 3.34-.93-.96 1.71-1.72H5.34V7.34h6.79L10.4 5.6l.93-.93Z" />
  </svg>

  <svg id="comments" xmlns="http://www.w3.org/2000/svg" viewBox="0 0 17 16">
    <path d="M11.84 8a.6.6 0 0 1-.21.47.64.64 0 0 1-.47.19H4.5l-2.66 2.68V2a.64.64 0 0 1 .66-.66h8.66c.18 0 .34.07.46.2a.6.6 0 0 1 .22.46v6Zm2.66-4a.64.64 0 0 1 .66.66v10L12.5 12H5.16a.64.64 0 0 1-.66-.66V10h8.66V4h1.34Z" />
  </svg>

  <svg id="like" xmlns="http://www.w3.org/2000/svg" viewBox="0 0 17 16">
    <path d="M8.56 12.38c1-.9 1.74-1.58 2.22-2.04.48-.45 1-1 1.56-1.62.57-.63.95-1.18 1.16-1.66.23-.48.34-.95.34-1.4A2.2 2.2 0 0 0 13.16 4a2.24 2.24 0 0 0-1.66-.66c-.52 0-1.01.15-1.47.44-.44.3-.74.67-.9 1.13H7.87a2.22 2.22 0 0 0-.93-1.13c-.44-.29-.92-.44-1.44-.44a2.25 2.25 0 0 0-2.34 2.31c0 .46.1.93.3 1.41.24.48.63 1.03 1.2 1.66.56.62 1.08 1.17 1.56 1.62.48.46 1.22 1.14 2.22 2.04l.06.06.06-.06ZM11.5 2c1.04 0 1.9.35 2.6 1.06.7.71 1.06 1.58 1.06 2.6 0 .6-.12 1.2-.35 1.78-.23.56-.65 1.2-1.28 1.9-.6.71-1.15 1.3-1.65 1.79-.5.47-1.3 1.21-2.41 2.21l-.97.88-.97-.85a88.83 88.83 0 0 1-3.12-2.9c-.63-.65-1.21-1.4-1.75-2.28a4.82 4.82 0 0 1-.82-2.53A3.58 3.58 0 0 1 5.5 2c1.2 0 2.2.47 3 1.4.8-.93 1.8-1.4 3-1.4Z" />
  </svg>

  <svg id="smile" xmlns="http://www.w3.org/2000/svg" viewBox="0 0 16 16">
    <path d="M10.06 11.03c-.6.42-1.29.63-2.06.63a3.7 3.7 0 0 1-2.1-.63c-.6-.44-1.04-1-1.3-1.69h1.09c.52.88 1.29 1.32 2.31 1.32s1.8-.44 2.31-1.32h1.1a3.66 3.66 0 0 1-1.35 1.7Zm-5.84.75A5.22 5.22 0 0 0 8 13.34c1.46 0 2.7-.52 3.75-1.56A5.17 5.17 0 0 0 13.35 8c0-1.46-.54-2.7-1.6-3.75A5.06 5.06 0 0 0 8 2.65c-1.46 0-2.72.54-3.78 1.6A5.11 5.11 0 0 0 2.66 8c0 1.46.52 2.72 1.56 3.78Zm-.94-8.47A6.44 6.44 0 0 1 8 1.34c1.83 0 3.4.66 4.69 1.97A6.33 6.33 0 0 1 14.66 8c0 1.83-.66 3.4-1.97 4.72A6.39 6.39 0 0 1 8 14.66c-1.83 0-3.4-.65-4.72-1.94A6.49 6.49 0 0 1 1.34 8c0-1.83.65-3.4 1.94-4.69Zm3.06 3.75a.94.94 0 0 1-.68.28c-.27 0-.51-.09-.72-.28-.19-.2-.28-.45-.28-.72 0-.27.09-.5.28-.68.2-.21.45-.32.72-.32.27 0 .5.1.68.32.21.18.32.41.32.68 0 .27-.1.51-.32.72Zm4.7 0a.93.93 0 0 1-.7.28c-.27 0-.5-.09-.71-.28-.2-.2-.29-.45-.29-.72 0-.27.1-.5.29-.68.2-.21.44-.32.71-.32.27 0 .5.1.7.32.2.18.3.41.3.68 0 .27-.1.51-.3.72Z" />
  </svg>

  <svg id="send" xmlns="http://www.w3.org/2000/svg" viewBox="0 0 16 16">
    <path d="M1.34 14V9.34l10-1.34-10-1.34V2l14 6-14 6Z" />
  </svg>

  <svg id="kebab" xmlns="http://www.w3.org/2000/svg" viewBox="0 0 16 16">
    <path d="M7.06 7.06a1.29 1.29 0 0 1 1.88 0 1.29 1.29 0 0 1 0 1.88 1.29 1.29 0 0 1-1.88 0 1.29 1.29 0 0 1 0-1.88Zm4 0a1.29 1.29 0 0 1 1.88 0 1.29 1.29 0 0 1 0 1.88 1.29 1.29 0 0 1-1.88 0 1.29 1.29 0 0 1 0-1.88Zm-8 0a1.29 1.29 0 0 1 1.88 0 1.29 1.29 0 0 1 0 1.88 1.29 1.29 0 0 1-1.88 0 1.29 1.29 0 0 1 0-1.88Z" />
  </svg>

  <svg id="settings" xmlns="http://www.w3.org/2000/svg" viewBox="0 0 14 14">
    <path d="M5.34 8.66c.46.45 1.01.68 1.66.68.65 0 1.2-.23 1.66-.68.45-.46.68-1.01.68-1.66 0-.65-.23-1.2-.68-1.66A2.26 2.26 0 0 0 7 4.66c-.65 0-1.2.23-1.66.68A2.26 2.26 0 0 0 4.66 7c0 .65.23 1.2.68 1.66Zm6.63-1 1.4 1.09c.15.1.17.25.07.44l-1.35 2.31c-.08.15-.22.19-.4.13l-1.66-.66c-.44.31-.81.53-1.12.65l-.25 1.76c-.05.18-.15.28-.32.28H5.66c-.17 0-.27-.1-.32-.29l-.25-1.74c-.4-.17-.77-.39-1.12-.66l-1.66.65c-.19.07-.32.03-.4-.12L.56 9.19c-.1-.19-.08-.34.06-.44l1.41-1.1a5.05 5.05 0 0 1 0-1.3l-1.4-1.1C.47 5.15.45 5 .55 4.81L1.91 2.5c.08-.15.21-.19.4-.13l1.66.66c.44-.31.81-.53 1.12-.65L5.34.63c.05-.2.15-.29.32-.29h2.68c.17 0 .27.1.32.28l.25 1.75c.4.17.77.39 1.12.66l1.66-.65c.18-.07.32-.03.4.12l1.35 2.31c.1.19.08.34-.07.44l-1.4 1.1a5.06 5.06 0 0 1 0 1.3Z" />
  </svg>

  <svg id="close" xmlns="http://www.w3.org/2000/svg" viewBox="0 0 10 10">
    <path d="M9.66 1.28 5.94 5l3.72 3.72-.94.94L5 5.94 1.28 9.66l-.94-.94L4.06 5 .34 1.28l.94-.94L5 4.06 8.72.34l.94.94Z" />
  </svg>

  <svg id="cloud" xmlns="http://www.w3.org/2000/svg" viewBox="0 0 18 18">
    <path d="M10.51 9.74h2.25L9 6 5.24 9.74h2.25v3.02h3.02V9.74Zm4.01-2.22c.96.07 1.78.47 2.46 1.2.68.7 1.02 1.55 1.02 2.53 0 1.03-.38 1.92-1.13 2.67a3.6 3.6 0 0 1-2.63 1.1H4.5a4.42 4.42 0 0 1-4.5-4.5c0-1.11.39-2.1 1.16-2.96.8-.9 1.75-1.4 2.85-1.51a5.88 5.88 0 0 1 2.07-2.22 5.36 5.36 0 0 1 6.44.5c1.1.88 1.77 1.95 2 3.2Z" />
  </svg>

  <svg id="filter" xmlns="http://www.w3.org/2000/svg" viewBox="0 0 18 18">
    <path d="M3.2 4.22a.66.66 0 0 1-.18-.53c.03-.19.1-.35.25-.5A.72.72 0 0 1 3.8 3h10.4c.21 0 .39.07.53.2.14.15.22.31.25.5a.66.66 0 0 1-.18.53l-1.02 1.3c-.37.5-.76.98-1.16 1.48a174.9 174.9 0 0 1-1.83 2.39l-.28.35v4.5c0 .2-.08.4-.24.56a.72.72 0 0 1-.53.21H8.26a.84.84 0 0 1-.56-.2.84.84 0 0 1-.21-.57v-4.5l-.32-.35c-.19-.26-.44-.6-.77-1.02a189527.23 189527.23 0 0 1-3.2-4.15Z" />
  </svg>

  <svg id="subscribe" xmlns="http://www.w3.org/2000/svg" viewBox="0 0 16 16">
    <path d="M6.47 10.1c1.23-.5 2.4-.76 3.53-.76s2.3.25 3.5.75c1.23.48 1.84 1.12 1.84 1.91v1.34H4.66V12c0-.8.6-1.43 1.8-1.9ZM4 6.65h2V8H4v2H2.66V8h-2V6.66h2v-2H4v2Zm7.88.56c-.53.52-1.15.78-1.88.78s-1.35-.26-1.88-.78a2.56 2.56 0 0 1-.78-1.88c0-.73.26-1.35.79-1.87A2.5 2.5 0 0 1 10 2.66c.73 0 1.35.27 1.88.8.52.53.78 1.15.78 1.88s-.26 1.36-.79 1.88Z" />
  </svg>

  <svg id="share" xmlns="http://www.w3.org/2000/svg" viewBox="0 0 16 16">
    <path d="M6 3.34h6.66V10h-1.32V5.6L3.6 13.33l-.93-.93 7.75-7.75H6V3.34Z" />
  </svg>

  <svg id="added" xmlns="http://www.w3.org/2000/svg" viewBox="0 0 16 16">
    <path d="M10.31 13.66 8 11.34l.94-.93 1.37 1.37 3.4-3.44.95.94-4.35 4.38Zm-1.1-6.44C8.7 7.74 8.08 8 7.35 8a2.66 2.66 0 0 1-1.9-4.53 2.61 2.61 0 0 1 3.78 0c.52.52.78 1.14.78 1.87 0 .73-.26 1.36-.78 1.88ZM6 11.34l2 2H2V12c0-.8.6-1.43 1.81-1.9A9.36 9.36 0 0 1 8 9.37l-2 1.96Z" />
  </svg>
</svg>
