<?xml version="1.0" encoding="utf-8"?>
<svg xmlns="http://www.w3.org/2000/svg" xmlns:xlink="http://www.w3.org/1999/xlink">
  <style>:root>svg{display:none}:root>svg:target{display:block}</style>

  <svg id="eye" xmlns="http://www.w3.org/2000/svg" viewBox="0 0 21 20">
    <path d="M10.38 7.5h.12c.68 0 1.26.25 1.76.74.5.5.74 1.08.74 1.76v.16L10.38 7.5Zm-3.6.66a4.09 4.09 0 0 0 .75 4.8 4.12 4.12 0 0 0 4.8.75l-1.28-1.29a2.4 2.4 0 0 1-2.3-.66 2.4 2.4 0 0 1-.67-2.3l-1.3-1.3Zm-4.6-4.6L3.23 2.5 18 17.27l-1.05 1.05-1.25-1.21-1.57-1.56c-1.12.47-2.33.7-3.63.7a9.64 9.64 0 0 1-5.59-1.72A9.61 9.61 0 0 1 1.32 10c.29-.68.73-1.42 1.33-2.23a9.98 9.98 0 0 1 1.8-1.91L3.12 4.53l-.94-.98Zm8.32 2.26c-.52 0-1.03.1-1.52.31l-1.8-1.8a9.17 9.17 0 0 1 3.32-.58c2.06 0 3.9.57 5.55 1.72a9.61 9.61 0 0 1 3.6 4.53 10.18 10.18 0 0 1-2.86 3.95l-2.42-2.43a3.93 3.93 0 0 0-.94-4.45 3.93 3.93 0 0 0-2.93-1.25Z" />
  </svg>

  <svg id="telegram" xmlns="http://www.w3.org/2000/svg" viewBox="0 0 240.1 240.1">
    <circle fill-rule="evenodd" clip-rule="evenodd" cx="120.1" cy="120.1" r="120.1"/>
    <path fill-rule="evenodd" clip-rule="evenodd" d="M54.3,118.8c35-15.2,58.3-25.3,70-30.2 c33.3-13.9,40.3-16.3,44.8-16.4c1,0,3.2,0.2,4.7,1.4c1.2,1,1.5,2.3,1.7,3.3s0.4,3.1,0.2,4.7c-1.8,19-9.6,65.1-13.6,86.3 c-1.7,9-5,12-8.2,12.3c-7,0.6-12.3-4.6-19-9c-10.6-6.9-16.5-11.2-26.8-18c-11.9-7.8-4.2-12.1,2.6-19.1c1.8-1.8,32.5-29.8,33.1-32.3 c0.1-0.3,0.1-1.5-0.6-2.1c-0.7-0.6-1.7-0.4-2.5-0.2c-1.1,0.2-17.9,11.4-50.6,33.5c-4.8,3.3-9.1,4.9-13,4.8 c-4.3-0.1-12.5-2.4-18.7-4.4c-7.5-2.4-13.5-3.7-13-7.9C45.7,123.3,48.7,121.1,54.3,118.8z"/>
  </svg>
</svg>
